<svg version="1.1" viewBox="0 0 96 96" xmlns="http://www.w3.org/2000/svg" xmlns:xlink="http://www.w3.org/1999/xlink" id="Icons_DanceSteps" overflow="hidden"><style>
.MsftOfcThm_Text1_Fill {
 fill:#000000; 
}
</style>
<defs></defs><g id="A"><path d=" M 20.81 77.05 C 21.0368 79.4133 21.4549 81.7543 22.06 84.05 L 22.49 85.59 C 23.36 89.07 27.39 89.97 30.31 89.13 L 31.85 88.69 C 34.8156 87.9203 36.6028 84.9 35.85 81.93 L 35.42 80.39 C 34.7971 78.0642 33.9359 75.809 32.85 73.66 L 20.85 77.01 Z" stroke="none" stroke-width="1" stroke-dasharray="" stroke-dashoffset="1" fill="#000000" fill-rule="evenodd" fill-opacity="1"/><path d=" M 19.06 72.68 L 31.47 69.34 C 28.75 59.08 38.05 52.34 28.95 41.13 L 28.95 41.13 C 27.1011 38.5622 23.8956 37.3493 20.81 38.05 C 17.0787 38.7496 14.1643 41.6759 13.48 45.41 C 12.08 53.41 13.69 63.41 19.06 72.68 Z" stroke="none" stroke-width="1" stroke-dasharray="" stroke-dashoffset="1" fill="#000000" fill-rule="evenodd" fill-opacity="1"/><path d=" M 69.73 45 C 69.0548 47.3585 68.1921 49.6591 67.15 51.88 L 66.43 53.35 C 64.91 56.7 60.67 56.86 57.88 55.46 L 56.41 54.74 C 53.5854 53.3913 52.3621 50.0283 53.66 47.18 L 54.39 45.71 C 55.4503 43.4774 56.737 41.3597 58.23 39.39 L 69.73 45 Z" stroke="none" stroke-width="1" stroke-dasharray="" stroke-dashoffset="1" fill="#000000" fill-rule="evenodd" fill-opacity="1"/><path d=" M 72.58 40 L 61 34.48 C 65.5 24.96 57.6 16.57 68.58 7.18 L 68.58 7.18 C 70.8635 4.99094 74.2367 4.38407 77.14 5.64 C 80.6783 7.00343 83.0091 10.4081 83 14.2 C 82.93 22.32 79.54 31.83 72.58 40 Z" stroke="none" stroke-width="1" stroke-dasharray="" stroke-dashoffset="1" fill="#000000" fill-rule="evenodd" fill-opacity="1"/><path d=" M 50.25 84.5 L 51.66 90.33 C 54.6316 89.6151 57.4365 88.3315 59.92 86.55 L 56.44 81.67 C 54.5754 82.9984 52.4745 83.9589 50.25 84.5 Z" stroke="none" stroke-width="1" stroke-dasharray="" stroke-dashoffset="1" fill="#000000" fill-rule="evenodd" fill-opacity="1"/><path d=" M 59 79.42 L 63.34 83.56 C 65.4504 81.349 67.1202 78.7561 68.26 75.92 L 62.69 73.69 C 61.8337 75.8163 60.5816 77.7607 59 79.42 Z" stroke="none" stroke-width="1" stroke-dasharray="" stroke-dashoffset="1" fill="#000000" fill-rule="evenodd" fill-opacity="1"/><path d=" M 40.11 84 L 38.11 89.67 C 40.647 90.5517 43.3141 91.0013 46 91 C 46.38 91 46.76 91 47.14 91 L 46.86 85 C 44.567 85.0964 42.2765 84.7571 40.11 84 Z" stroke="none" stroke-width="1" stroke-dasharray="" stroke-dashoffset="1" fill="#000000" fill-rule="evenodd" fill-opacity="1"/><path d=" M 78 68 L 67 57 L 56 68 L 64 68 C 63.9655 68.8086 63.8753 69.6138 63.73 70.41 L 69.62 71.54 C 69.8321 70.3707 69.9591 69.1876 70 68 Z" stroke="none" stroke-width="1" stroke-dasharray="" stroke-dashoffset="1" fill="#000000" fill-rule="evenodd" fill-opacity="1"/></g></svg>