<svg version="1.1" viewBox="0 0 96 96" xmlns="http://www.w3.org/2000/svg" xmlns:xlink="http://www.w3.org/1999/xlink" id="Icons_CircleWithRightArrow" overflow="hidden"><style>
.MsftOfcThm_Background1_Fill {
 fill:#FFFFFF; 
}
</style>
<path d=" M 71 48 C 71 49.6569 69.6569 51 68 51 L 35.24 51 L 44.12 59.88 C 45.2495 61.0922 45.1825 62.9905 43.9703 64.12 C 42.8182 65.1936 41.0321 65.1936 39.88 64.12 L 25.88 50.12 C 24.7102 48.9487 24.7102 47.0513 25.88 45.88 L 39.88 31.88 C 41.0922 30.7505 42.9905 30.8175 44.12 32.0297 C 45.1936 33.1818 45.1936 34.9679 44.12 36.12 L 35.24 45 L 68 45 C 69.6569 45 71 46.3431 71 48 Z" stroke="none" stroke-width="1" stroke-dasharray="" stroke-dashoffset="1" fill="#FFFFFF" fill-opacity="1"/><path d=" M 10 48 C 10 68.9868 27.0132 86 48 86 C 68.9868 86 86 68.9868 86 48 C 86 27.0132 68.9868 10 48 10 C 27.0132 10 10 27.0132 10 48 Z M 16 48 C 16 30.3269 30.3269 16 48 16 C 65.6731 16 80 30.3269 80 48 C 80 65.6731 65.6731 80 48 80 C 30.3269 80 16 65.6731 16 48 Z" stroke="none" stroke-width="1" stroke-dasharray="" stroke-dashoffset="1" fill="#FFFFFF" fill-opacity="1"/></svg>