<svg version="1.1" width="232" height="666.667" viewBox="0 0 174 500" xmlns="http://www.w3.org/2000/svg" xmlns:xlink="http://www.w3.org/1999/xlink" overflow="hidden"><g stroke="none" fill="#000000" transform="matrix(0.1,0,0,-0.1,0,500)"><path d=" M 567 4938 C 667 4843 735 4723 800 4526 L 833 4427 L 822 4301 C 815 4232 807 4126 804 4066 L 797 3957 L 775 4019 C 718 4175 605 4302 458 4375 C 337 4434 245 4454 117 4447 C 63 4444 16 4439 12 4436 C 9 4432 17 4422 31 4413 C 102 4364 148 4288 235 4077 C 319 3872 432 3787 638 3771 C 689 3768 733 3766 735 3768 C 743 3776 670 3931 625 4001 C 570 4086 472 4186 405 4225 C 347 4260 352 4267 416 4239 C 574 4170 736 3984 780 3822 C 787 3795 792 3648 795 3422 C 796 3226 801 3029 805 2984 L 813 2903 L 464 2896 C 272 2893 97 2886 75 2882 C 38 2875 37 2874 60 2867 C 74 2862 175 2857 285 2854 L 485 2849 L 558 2804 L 630 2759 L 630 2252 L 630 1745 L 517 1632 C 448 1563 397 1520 384 1520 C 341 1520 324 1469 361 1450 C 377 1441 386 1442 401 1456 C 412 1465 418 1481 415 1490 C 412 1500 426 1522 455 1550 L 500 1594 L 500 1444 C 500 1353 496 1290 490 1284 C 482 1276 484 1269 495 1260 C 519 1240 539 1263 522 1290 C 514 1303 510 1358 510 1458 L 510 1606 L 565 1660 C 620 1714 650 1724 611 1674 C 600 1659 590 1644 590 1639 C 590 1635 633 1590 685 1539 C 737 1489 778 1444 776 1441 C 773 1437 770 1351 769 1250 C 767 1101 769 1065 780 1065 C 791 1065 793 1102 791 1253 L 789 1441 L 830 1396 L 872 1351 L 869 1234 C 866 1147 869 1115 878 1112 C 892 1108 905 1134 895 1150 C 888 1161 882 1340 888 1340 C 901 1340 920 1307 920 1286 C 920 1270 927 1259 940 1255 C 959 1249 960 1240 960 1031 C 960 875 957 811 948 802 C 939 793 939 786 951 774 C 965 761 968 761 980 775 C 990 787 990 794 982 802 C 967 817 965 1260 980 1260 C 998 1260 991 1309 971 1319 C 961 1325 950 1326 946 1323 C 942 1319 877 1378 800 1455 C 666 1589 662 1594 677 1616 C 688 1633 689 1643 680 1659 C 674 1671 665 1680 660 1680 C 654 1680 650 1695 650 1713 C 650 1739 660 1755 698 1791 C 724 1816 757 1844 773 1853 C 803 1872 809 1910 785 1930 C 772 1941 770 1995 770 2307 L 770 2671 L 800 2650 L 830 2629 L 830 2256 C 830 1936 828 1881 815 1870 C 794 1852 796 1801 818 1793 C 827 1790 883 1740 942 1681 L 1050 1575 L 1050 1244 C 1050 961 1048 911 1035 900 C 1007 877 1019 849 1086 786 L 1151 725 L 1150 410 C 1149 237 1148 84 1147 70 C 1146 55 1150 45 1159 45 C 1170 45 1172 103 1171 375 L 1169 705 L 1215 660 L 1260 616 L 1260 385 C 1260 229 1256 150 1249 143 C 1236 130 1245 110 1265 110 C 1285 110 1294 130 1281 143 C 1274 150 1270 227 1270 379 L 1270 603 L 1295 580 C 1309 567 1319 551 1317 546 C 1310 527 1330 500 1351 500 C 1370 500 1371 494 1368 273 C 1366 147 1361 37 1356 28 C 1349 13 1353 10 1374 10 C 1400 10 1410 33 1389 45 C 1382 50 1379 134 1381 307 C 1383 566 1380 587 1346 574 C 1340 572 1279 625 1211 694 C 1098 807 1089 819 1100 839 C 1113 864 1106 896 1085 904 C 1072 909 1070 957 1070 1225 C 1070 1398 1074 1540 1078 1540 C 1095 1540 1160 1463 1160 1443 C 1160 1431 1169 1415 1181 1406 C 1201 1392 1202 1385 1199 1216 C 1195 1065 1197 1040 1210 1040 C 1223 1040 1225 1066 1222 1225 C 1219 1356 1221 1415 1230 1425 C 1246 1445 1225 1480 1197 1480 C 1183 1480 1154 1500 1122 1533 L 1070 1586 L 1070 1675 L 1070 1765 L 1165 1670 C 1232 1604 1260 1568 1260 1552 C 1260 1537 1267 1526 1280 1523 C 1299 1518 1300 1509 1300 1366 C 1300 1274 1296 1210 1290 1204 C 1282 1196 1284 1189 1295 1180 C 1319 1160 1339 1183 1322 1210 C 1304 1240 1306 1509 1325 1534 C 1344 1558 1328 1590 1297 1590 C 1282 1590 1241 1624 1172 1693 L 1070 1795 L 1070 2270 L 1070 2745 L 1144 2783 C 1185 2804 1220 2828 1222 2835 C 1224 2846 1268 2850 1437 2853 C 1649 2858 1713 2867 1635 2882 C 1613 2887 1443 2893 1258 2897 C 1072 2900 920 2906 920 2910 C 920 2914 913 2982 904 3061 C 884 3238 889 3432 915 3503 C 949 3596 1135 3763 1298 3845 C 1378 3886 1402 3887 1343 3848 C 1281 3807 1154 3690 1089 3615 C 1007 3522 936 3414 945 3399 C 955 3383 1063 3394 1160 3421 C 1378 3481 1566 3647 1654 3859 C 1694 3952 1710 4035 1710 4149 L 1710 4252 L 1646 4193 C 1572 4123 1494 4074 1280 3961 C 1040 3835 946 3754 900 3632 L 882 3585 L 875 3652 C 871 3688 869 3860 871 4033 L 875 4347 L 935 4426 C 1083 4622 1267 4768 1468 4847 C 1555 4881 1561 4886 1535 4891 C 1428 4914 1257 4891 1150 4838 C 1035 4782 961 4689 882 4500 C 873 4479 871 4485 871 4540 C 869 4687 807 4815 697 4897 C 641 4938 543 4990 520 4990 C 515 4990 536 4966 567 4938 Z M 1180 2850 C 1180 2847 1103 2805 1010 2757 L 839 2669 L 700 2757 C 623 2805 560 2847 560 2850 C 560 2853 699 2855 870 2855 C 1041 2855 1180 2853 1180 2850 Z M 700 2714 L 740 2687 L 740 2310 C 740 1983 738 1931 725 1926 C 707 1919 705 1879 722 1862 C 732 1852 725 1841 692 1807 L 650 1765 L 650 2253 C 650 2521 652 2740 655 2740 C 658 2740 678 2728 700 2714 Z M 1050 2273 L 1050 1817 L 1026 1840 C 1004 1860 1003 1864 1016 1877 C 1036 1897 1034 1924 1010 1945 C 991 1962 990 1976 990 2331 L 990 2699 L 1012 2714 C 1024 2723 1038 2730 1042 2730 C 1047 2730 1050 2524 1050 2273 Z M 970 2321 C 970 2006 968 1951 955 1940 C 928 1918 939 1889 995 1838 L 1050 1788 L 1050 1697 L 1050 1605 L 959 1696 C 872 1783 869 1787 881 1813 C 892 1837 891 1843 872 1863 C 850 1886 850 1888 852 2261 L 855 2635 L 905 2662 C 933 2677 958 2690 963 2690 C 967 2690 970 2524 970 2321 Z" stroke="none" stroke-width="1" stroke-dasharray="" stroke-dashoffset="1" fill="#05989E" fill-opacity="0.74902"/></g></svg>